<svg xmlns="http://www.w3.org/2000/svg" width="125.77" height="91.598" viewBox="0 0 33.277 24.235"><g transform="translate(-100.506 -112.487)"><ellipse cx="115.803" cy="127.141" rx="15.297" ry="9.582" style="opacity:1;fill:#fc0;fill-opacity:.77386935;stroke:#000;stroke-width:0;stroke-miterlimit:4;stroke-dasharray:none;stroke-opacity:1"/><path d="m122.452 135.78 1.027-4.586 2.951.86-.185.656-1.896 1.756z" style="fill:#f2f2f2;fill-opacity:1;stroke:#000;stroke-width:0;stroke-linecap:butt;stroke-linejoin:miter;stroke-miterlimit:4;stroke-dasharray:none;stroke-opacity:1" transform="rotate(21.478 120.143 130.742)"/><path d="M119.628 108.333c.114-.32.229-.64.338-.929.109-.288.214-.544.339-.759.125-.214.271-.387.414-.473.143-.086.293-.086.393-.003.1.084.156.25.143.405-.012.153-.098.303-.182.447l-1.445 1.312z" style="fill:#e9c6af;fill-opacity:1;stroke:#000;stroke-width:0;stroke-linecap:butt;stroke-linejoin:miter;stroke-miterlimit:4;stroke-dasharray:none;stroke-opacity:1" transform="rotate(21.478 13.29 192.153) scale(.82729)"/><path d="M118.338 109.306c.154-.333.309-.666.411-.957.102-.292.153-.543.233-.76.081-.217.193-.4.32-.481.128-.081.274-.059.362.047.09.105.123.295.156.484l-.17.693-1.212.907-.1.067z" style="fill:#e9c6af;fill-opacity:1;stroke:#000;stroke-width:0;stroke-linecap:butt;stroke-linejoin:miter;stroke-miterlimit:4;stroke-dasharray:none;stroke-opacity:1" transform="rotate(21.478 13.29 192.152) scale(.82729)"/><path d="M113.724 116.658c.078-.394.157-.788.2-1.11a3.28 3.28 0 0 0 .02-.85 5.468 5.468 0 0 0-.181-.851c-.079-.276-.165-.528-.228-.776s-.103-.492-.161-.7c-.059-.206-.139-.383-.461-.678-.323-.295-.89-.712-1.174-1.008-.283-.295-.283-.469-.153-.579.13-.11.39-.157.65-.157s.52.047.85.224c.33.177.732.485 1.102.717.37.232.709.39 1.005.437.297.047.547-.016 1.023-.338.476-.323 1.177-.906 2.055-1.619.878-.712 1.934-1.555 2.599-2.17.665-.614.94-1 1.236-1.224.295-.224.61-.287.718-.15.107.139.003.493-.28.952-.282.459-.749 1.037-1.336 1.785a75.444 75.444 0 0 0-1.948 2.583 55.903 55.903 0 0 0-1.65 2.445c-.398.626-.595.972-.842 1.396-.247.424-.548.93-.698 1.332-.15.402-.15.701-.15.85v.148l-2.196-.659z" style="fill:#f4e3d7;fill-opacity:1;stroke:#000;stroke-width:0;stroke-linecap:butt;stroke-linejoin:miter;stroke-miterlimit:4;stroke-dasharray:none;stroke-opacity:1" transform="rotate(21.478 13.29 192.152) scale(.82729)"/><path d="M91.855 119.033c-1.14-1.022-.22-1.344.87-1.811 1.087-.468 2.34-1.078 3.43-1.552a38.822 38.822 0 0 1 2.53-.993c.512-.182.611-.208.895-.07.285.14.759.445 1.295.786.537.34 1.139.716 1.628 1.028.49.311.87.56 1.142.808.273.25.44.5.476.778.036.279-.058.585-.287 1.128-.228.543-.59 1.322-1.349 2.088s-1.918 1.521-4.109 1.035-5.38-2.202-6.52-3.225z" style="fill:#f2f2f2;fill-opacity:1;stroke:#000;stroke-width:0;stroke-linecap:butt;stroke-linejoin:miter;stroke-miterlimit:4;stroke-dasharray:none;stroke-opacity:1" transform="matrix(.97249 0 0 .97249 13.788 17.135)"/><path d="M100.66 108.622c-.111.337.045.588.198.886.153.298.303.643.418.935.114.292.192.532.323.749.13.217.314.412.818.654.504.243 1.328.532 2.044.446.715-.087 1.322-.549 1.378-1.217.056-.668-.44-1.542-.95-2.327-.51-.785-1.033-1.482-1.595-1.685-.562-.203-1.163.086-1.653.443-.49.356-.869.78-.98 1.116z" style="fill:#483737;stroke:#000;stroke-width:.065;stroke-linecap:butt;stroke-linejoin:miter;stroke-miterlimit:4;stroke-dasharray:none;stroke-opacity:1" transform="matrix(.97249 0 0 .97249 13.788 17.135)"/><path d="M99.53 107.094c.072.122.217.367.368.654.15.287.306.615.445.771.14.156.262.14.85-.404.587-.543 1.65-1.623 2.238-2.355.587-.732.704-1.122.57-1.363-.133-.242-.529-.338-1.267-.003-.737.334-1.823 1.096-2.491 1.492-.668.395-.919.423-.98.543-.061.12.067.331.13.437.065.106.065.106.137.228z" style="fill:#e6e6e6;fill-opacity:1;stroke:#000;stroke-width:0;stroke-linecap:butt;stroke-linejoin:miter;stroke-miterlimit:4;stroke-dasharray:none;stroke-opacity:1" transform="matrix(.97249 0 0 .97249 13.626 17.167)"/><path d="M114.883 133.033c-.047-.02-.094-.059-.104-.084a.404.404 0 0 1 .01-.263c.066-.124.403-.124.504 0 .161.2-.147.46-.41.347z" style="opacity:1;fill:#2d88a0;fill-opacity:.51372549;stroke:#000;stroke-width:0;stroke-miterlimit:4;stroke-dasharray:none;stroke-opacity:1" transform="matrix(1.1755 0 0 1.1755 -21.366 -23.843)"/><path d="M101.05 114.44c-.295-.486-.1-.62.062-.717.161-.098.29-.16.45-.35.162-.193.357-.516.924-.441.568.075 1.51.549 2.108.96.599.412.855.763.941 1.106.087.342.003.676-.209.994-.211.317-.55.618-.974.718-.423.1-.93 0-1.576-.47-.646-.471-1.43-1.312-1.726-1.8z" style="fill:#e9c6af;fill-opacity:1;stroke:#000;stroke-width:0;stroke-linecap:butt;stroke-linejoin:miter;stroke-miterlimit:4;stroke-dasharray:none;stroke-opacity:1" transform="matrix(.97249 0 0 .97249 13.788 17.135)"/><path d="M104.35 117.87c.197-.214.56-.754.865-1.196.306-.443.557-.788.807-1.133-.657.323-1.313.645-1.684.946-.37.3-.454.579-.448.805.006.225.1.398.164.54.064.142.098.253.295.039z" style="fill:#f4e3d7;stroke:#000;stroke-width:0;stroke-linecap:butt;stroke-linejoin:miter;stroke-miterlimit:4;stroke-dasharray:none;stroke-opacity:1" transform="matrix(1.14214 0 0 .93498 -4.092 21.13)"/><path d="M100.727 108.642c.209-.126.626-.378 1.059-.634.433-.256.882-.516 1.728-1.04.846-.523 2.091-1.31 2.717-1.728.626-.418.634-.465.45-.758-.184-.294-.564-.84-.823-1.213-.258-.372-.403-.58-.422-.834-.02-.253.082-.55.098-.963a3.457 3.457 0 0 0-.248-1.402 3.24 3.24 0 0 0-.871-1.171 3.381 3.381 0 0 0-1.283-.71c-.496-.146-1.07-.193-1.525-.062-.455.132-.782.435-1.07.817-.287.382-.53.839-.751 1.213-.22.374-.417.665-.726.942-.31.277-.723.534-1.231.87-.508.334-1.106.743-1.54 1.176-.433.433-.7.89-.858 1.197a1.643 1.643 0 0 0-.22.827c-.016.363 0 .93.193 1.418.193.488.563.897.921 1.137.358.24.705.312 1.173.21.469-.103 1.06-.379 1.587-.706.528-.326.992-.705 1.488-1.04.496-.334 1.024-.625 1.512-.91.487-.284.953-.574 1.22-.703.268-.13.347-.107.194.129-.153.236-.54.685-.941 1.142-.402.457-.82.921-1.174 1.331-.354.41-.645.764-.819 1.004-.173.24-.228.366-.244.445-.016.079.008.11.048.126s.094.016.122.016c.027 0 .027 0 .236-.126z" style="opacity:1;fill:#f2f2f2;fill-opacity:1;stroke:#000;stroke-width:0;stroke-linecap:butt;stroke-linejoin:miter;stroke-miterlimit:4;stroke-dasharray:none;stroke-opacity:1" transform="matrix(.97249 0 0 .97249 13.788 17.135)"/><path d="m99.408 114.461.874-.992c1.212.795 2.425 1.59 3.06 2.102.633.512.688.74.688.95 0 .208-.055.397-.102.53-.048.135-.088.214-.127.294l-4.393-2.884z" style="fill:#2c89a0;stroke:#000;stroke-width:0;stroke-linecap:butt;stroke-linejoin:miter;stroke-miterlimit:4;stroke-dasharray:none;stroke-opacity:1" transform="matrix(.97249 0 0 .97249 13.788 17.135)"/><path d="M104.43 111.713a4.64 4.64 0 0 0-.593-.652c-.276-.242-.615-.454-.927-.538a1.184 1.184 0 0 0-.813.062c-.206.1-.328.256-.426.412-.097.156-.17.312-.175.596a3.03 3.03 0 0 0 .168 1c.113.305.283.509.427.662.145.153.268.259.527.312.259.053.654.053 1.122.375.467.323 1.007.97 1.4 1.29.393.32.638.314 1.211.194.574-.12 1.476-.353 2.191-.556.716-.204 1.245-.376 1.579-.532.334-.156.473-.295.473-.443 0-.147-.14-.303-.259-.51a1.709 1.709 0 0 1-.237-.698.929.929 0 0 1 .184-.632c.134-.178.334-.318.48-.39.144-.072.233-.078.239-.164.006-.086-.073-.253-.15-.36-.079-.105-.157-.15-.21-.311-.053-.162-.08-.44-.142-.562-.06-.123-.155-.09-.225.01-.07.101-.114.268-.137.396-.022.128-.022.217-.058.267-.036.05-.108.062-.192.076-.084.014-.178.03-.326-.082-.148-.111-.348-.35-.478-.55-.13-.202-.193-.374-.129-.538.064-.164.254-.326.411-.445.158-.118.288-.198.31-.32.023-.123-.061-.29-.259-.568-.197-.278-.51-.668-.83-1.118-.323-.449-.66-.965-.957-1.4-.298-.433-.56-.79-.707-.954-.147-.165-.18-.137-.324-.027-.143.11-.391.297-.8.533-.408.236-.978.521-1.443.772-.465.25-.827.467-1.03.612-.203.145-.248.217-.262.32-.014.104.003.237.053.438.05.2.134.467.281.796.148.329.36.718.56 1.05.2.33.39.604.554.81.164.206.303.345.46.506.155.162.328.346.397.454.07.108.037.142-.073.234-.109.093-.291.242-.403.323-.11.08-.15.092-.197.078-.048-.014-.103-.053-.131-.073-.028-.019-.028-.019-.134-.155z" style="fill:#f4e3d7;stroke:#000;stroke-width:0;stroke-linecap:butt;stroke-linejoin:miter;stroke-miterlimit:4;stroke-dasharray:none;stroke-opacity:1" transform="matrix(.97249 0 0 .97249 13.788 17.135)"/><path d="M106.368 107.684c.061.045.184.134.313.194.13.06.267.091.41.112.144.022.294.034.382-.047.089-.08.116-.254.105-.435a2.194 2.194 0 0 0-.136-.577c-.073-.207-.168-.431-.252-.534-.085-.102-.16-.082-.18-.033-.019.05.016.128.052.219.035.09.07.192.112.309.041.116.089.246.112.372.024.126.024.248.018.328-.006.081-.018.12-.079.148a.469.469 0 0 1-.302.008 1.807 1.807 0 0 1-.395-.185c-.108-.063-.17-.103-.216-.105a.066.066 0 0 0-.07.07c.001.037.033.074.049.093.016.018.016.018.077.063z" style="fill:#6c5d53;stroke:#000;stroke-width:0;stroke-linecap:butt;stroke-linejoin:miter;stroke-miterlimit:4;stroke-dasharray:none;stroke-opacity:1" transform="matrix(.97249 0 0 .97249 13.753 17.304)"/></g></svg>